<?xml version="1.0" encoding="iso-8859-1"?>
<!-- Generator: Adobe Illustrator 19.1.0, SVG Export Plug-In . SVG Version: 6.00 Build 0)  -->
<svg version="1.1" id="Capa_1" xmlns="http://www.w3.org/2000/svg" xmlns:xlink="http://www.w3.org/1999/xlink" x="0px" y="0px"
	 viewBox="0 0 489.3 489.3" style="enable-background:new 0 0 489.3 489.3;" xml:space="preserve">
<g>
	<g>
		<path d="M153.5,237.862L153.5,237.862c0.2,0,0.3,0,0.5,0s0.3,0,0.5,0l0,0c84.2-0.9,72-113.3,72-113.3
			c-3.5-75.1-66.3-74.5-72.5-74.3c-6.2-0.2-69.1-0.9-72.5,74.3C81.4,124.562,69.2,236.962,153.5,237.862z"/>
		<path d="M208.4,258.862l-29.2,92.4l-17.1-48.4c30-41.8-2.1-43.9-7.8-44l0,0c-0.1,0-0.1,0-0.2,0c-0.1,0-0.1,0-0.2,0l0,0
			c-5.7,0.1-37.8,2.1-7.8,44l-17.1,48.4l-29.2-92.4c0,0-36.7,17.8-69.6,38.5c-24.8,15.6-29.4,32.3-30.1,56.6l-0.1,81.9h154.2h48.6
			c-0.6-2-0.9-4.1-0.9-6.3v-75.8c0-12.7,10.3-23,23-23h28.5c2.1,0,4.1,0.3,6.1,0.8v-11.9c0-11.1,7.8-20.3,18.2-22.5
			C245,276.562,208.4,258.862,208.4,258.862z"/>
		<path d="M253.5,347.662H225c-3.4,0-6.1,2.8-6.1,6.1v11.9v52.1v11.8c0,3.4,2.8,6.1,6.1,6.1h28.5c3.4,0,6.1-2.8,6.1-6.1v-11.8v-52.1
			v-11.8C259.7,350.462,256.9,347.662,253.5,347.662z"/>
		<path d="M311.1,313.562h-28.5c-3.4,0-6.1,2.8-6.1,6.1v46v18v45.9c0,3.4,2.8,6.1,6.1,6.1h28.5c3.4,0,6.1-2.8,6.1-6.1v-45.9v-18
			v-45.9C317.3,316.362,314.5,313.562,311.1,313.562z"/>
		<path d="M374.9,331.762v-50.7h19.7c3.6,0,5.9-4,3.9-7.1l-40.1-64.4c-1.8-2.9-6.1-2.9-7.9,0l-40.1,64.4c-1.9,3.1,0.3,7.1,3.9,7.1
			H334v148.5c0,3.4,2.8,6.1,6.1,6.1h28.6c3.4,0,6.1-2.7,6.1-6.1c-11.5-13.1-18.4-30.2-18.4-48.9
			C356.5,361.962,363.4,344.862,374.9,331.762z"/>
		<path d="M430.9,322.262c-32.3,0-58.4,26.1-58.4,58.4s26.1,58.4,58.4,58.4s58.4-26.1,58.4-58.4S463.2,322.262,430.9,322.262z
			 M447.7,403.762c-2.5,3.1-5.9,5.2-9.7,6.2c-1.7,0.5-2.4,1.3-2.4,3.1c0.1,1.7,0,3.4,0,5.2c0,1.5-0.8,2.4-2.3,2.4
			c-1.9,0-3.7,0-5.6,0c-1.6,0-2.4-1-2.4-2.5c0-1.3,0-2.5,0-3.8c0-2.8-0.1-2.9-2.8-3.3c-3.4-0.5-6.8-1.3-9.9-2.8
			c-2.5-1.2-2.7-1.8-2-4.4c0.5-1.9,1.1-3.8,1.6-5.7c0.7-2.2,1.3-2.5,3.3-1.4c3.5,1.8,7.1,2.8,11,3.3c2.5,0.3,4.9,0.1,7.2-0.9
			c4.3-1.9,5-6.9,1.3-9.8c-1.2-1-2.6-1.8-4.1-2.4c-3.8-1.7-7.7-2.9-11.2-5c-5.8-3.5-9.4-8.2-9-15.2c0.5-7.9,5-12.9,12.2-15.5
			c3-1.1,3-1,3-4.2c0-1.1,0-2.1,0-3.2c0.1-2.4,0.5-2.8,2.8-2.8c0.7,0,1.5,0,2.2,0c5,0,5,0,5,5c0,3.5,0,3.6,3.5,4.1
			c2.7,0.4,5.3,1.2,7.8,2.3c1.4,0.6,1.9,1.6,1.5,3c-0.6,2.2-1.2,4.3-1.9,6.5c-0.7,2-1.3,2.3-3.3,1.4c-3.9-1.9-8-2.7-12.4-2.4
			c-1.1,0.1-2.2,0.2-3.3,0.7c-3.7,1.6-4.3,5.8-1.2,8.3c1.6,1.3,3.5,2.2,5.4,3c3.3,1.4,6.6,2.7,9.8,4.4
			C452,382.562,454.7,395.162,447.7,403.762z"/>
	</g>
</g>
<g>
</g>
<g>
</g>
<g>
</g>
<g>
</g>
<g>
</g>
<g>
</g>
<g>
</g>
<g>
</g>
<g>
</g>
<g>
</g>
<g>
</g>
<g>
</g>
<g>
</g>
<g>
</g>
<g>
</g>
</svg>
