<?xml version="1.0" encoding="iso-8859-1"?>
<!-- Generator: Adobe Illustrator 19.0.0, SVG Export Plug-In . SVG Version: 6.00 Build 0)  -->
<svg version="1.1" id="Layer_1" xmlns="http://www.w3.org/2000/svg" xmlns:xlink="http://www.w3.org/1999/xlink" x="0px" y="0px"
	 viewBox="0 0 512 512" style="enable-background:new 0 0 512 512;" xml:space="preserve">
<g>
	<g>
		<path d="M172,191.946c-2.208,0-4,1.788-4,4c0,15.496-32.148,32.088-80,32.088S8,211.442,8,195.946c0-2.212-1.792-4-4-4
			s-4,1.788-4,4c0,22.48,38.656,40.088,88,40.088s88-17.612,88-40.088C176,193.734,174.208,191.946,172,191.946z"/>
	</g>
</g>
<g>
	<g>
		<path d="M172,215.97c-2.208,0-4,1.788-4,4c0,15.496-32.148,32.088-80,32.088S8,235.466,8,219.97c0-2.212-1.792-4-4-4s-4,1.788-4,4
			c0,22.48,38.656,40.088,88,40.088s88-17.612,88-40.088C176,217.758,174.208,215.97,172,215.97z"/>
	</g>
</g>
<g>
	<g>
		<path d="M172,239.994c-2.208,0-4,1.788-4,4c0,15.496-32.148,32.088-80,32.088S8,259.49,8,243.994c0-2.212-1.792-4-4-4
			s-4,1.788-4,4c0,22.48,38.656,40.088,88,40.088s88-17.612,88-40.088C176,241.782,174.208,239.994,172,239.994z"/>
	</g>
</g>
<g>
	<g>
		<path d="M172,143.858c-2.208,0-4,1.788-4,4c0,15.496-32.148,32.088-80,32.088S8,163.354,8,147.858c0-2.212-1.792-4-4-4
			s-4,1.788-4,4c0,22.48,38.656,40.088,88,40.088s88-17.608,88-40.088C176,145.646,174.208,143.858,172,143.858z"/>
	</g>
</g>
<g>
	<g>
		<path d="M172,167.882c-2.208,0-4,1.788-4,4c0,15.496-32.148,32.088-80,32.088S8,187.378,8,171.882c0-2.212-1.792-4-4-4
			s-4,1.788-4,4c0,22.48,38.656,40.088,88,40.088s88-17.608,88-40.088C176,169.67,174.208,167.882,172,167.882z"/>
	</g>
</g>
<g>
	<g>
		<path d="M172,264.014c-2.208,0-4,1.788-4,4c0,15.496-32.148,32.088-80,32.088S8,283.51,8,268.014c0-2.212-1.792-4-4-4
			s-4,1.788-4,4c0,22.48,38.656,40.088,88,40.088s88-17.608,88-40.088C176,265.802,174.208,264.014,172,264.014z"/>
	</g>
</g>
<g>
	<g>
		<path d="M172,288.038c-2.208,0-4,1.788-4,4c0,15.496-32.148,32.088-80,32.088S8,307.534,8,292.038c0-2.212-1.792-4-4-4
			s-4,1.788-4,4c0,22.48,38.656,40.088,88,40.088s88-17.608,88-40.088C176,289.826,174.208,288.038,172,288.038z"/>
	</g>
</g>
<g>
	<g>
		<path d="M172,312.062c-2.208,0-4,1.788-4,4c0,15.496-32.148,32.084-80,32.084S8,331.558,8,316.062c0-2.212-1.792-4-4-4
			s-4,1.788-4,4c0,22.476,38.656,40.084,88,40.084s88-17.608,88-40.084C176,313.85,174.208,312.062,172,312.062z"/>
	</g>
</g>
<g>
	<g>
		<path d="M172,336.086c-2.208,0-4,1.788-4,4c0,15.496-32.148,32.084-80,32.084S8,355.582,8,340.086c0-2.212-1.792-4-4-4
			s-4,1.788-4,4c0,22.476,38.656,40.084,88,40.084s88-17.608,88-40.084C176,337.874,174.208,336.086,172,336.086z"/>
	</g>
</g>
<g>
	<g>
		<path d="M172,360.11c-2.208,0-4,1.788-4,4c0,15.496-32.148,32.084-80,32.084S8,379.606,8,364.11c0-2.212-1.792-4-4-4s-4,1.788-4,4
			c0,22.476,38.656,40.084,88,40.084s88-17.612,88-40.084C176,361.898,174.208,360.11,172,360.11z"/>
	</g>
</g>
<g>
	<g>
		<path d="M172,384.13c-2.208,0-4,1.788-4,4c0,15.496-32.148,32.088-80,32.088S8,403.626,8,388.13c0-2.212-1.792-4-4-4s-4,1.788-4,4
			c0,22.48,38.656,40.088,88,40.088s88-17.612,88-40.088C176,385.918,174.208,384.13,172,384.13z"/>
	</g>
</g>
<g>
	<g>
		<path d="M340,215.97c-2.208,0-4,1.788-4,4c0,15.496-32.148,32.088-80,32.088s-80-16.592-80-32.088c0-2.212-1.792-4-4-4
			s-4,1.788-4,4c0,22.48,38.656,40.088,88,40.088s88-17.612,88-40.088C344,217.758,342.208,215.97,340,215.97z"/>
	</g>
</g>
<g>
	<g>
		<path d="M340,239.994c-2.208,0-4,1.788-4,4c0,15.496-32.148,32.088-80,32.088s-80-16.592-80-32.088c0-2.212-1.792-4-4-4
			s-4,1.788-4,4c0,22.48,38.656,40.088,88,40.088s88-17.612,88-40.088C344,241.782,342.208,239.994,340,239.994z"/>
	</g>
</g>
<g>
	<g>
		<path d="M340,264.014c-2.208,0-4,1.788-4,4c0,15.496-32.148,32.088-80,32.088s-80-16.592-80-32.088c0-2.212-1.792-4-4-4
			s-4,1.788-4,4c0,22.48,38.656,40.088,88,40.088s88-17.608,88-40.088C344,265.802,342.208,264.014,340,264.014z"/>
	</g>
</g>
<g>
	<g>
		<path d="M340,288.038c-2.208,0-4,1.788-4,4c0,15.496-32.148,32.088-80,32.088s-80-16.592-80-32.088c0-2.212-1.792-4-4-4
			s-4,1.788-4,4c0,22.48,38.656,40.088,88,40.088s88-17.608,88-40.088C344,289.826,342.208,288.038,340,288.038z"/>
	</g>
</g>
<g>
	<g>
		<path d="M340,312.062c-2.208,0-4,1.788-4,4c0,15.496-32.148,32.084-80,32.084s-80-16.588-80-32.084c0-2.212-1.792-4-4-4
			s-4,1.788-4,4c0,22.476,38.656,40.084,88,40.084s88-17.608,88-40.084C344,313.85,342.208,312.062,340,312.062z"/>
	</g>
</g>
<g>
	<g>
		<path d="M340,336.086c-2.208,0-4,1.788-4,4c0,15.496-32.148,32.084-80,32.084s-80-16.588-80-32.084c0-2.212-1.792-4-4-4
			s-4,1.788-4,4c0,22.476,38.656,40.084,88,40.084s88-17.608,88-40.084C344,337.874,342.208,336.086,340,336.086z"/>
	</g>
</g>
<g>
	<g>
		<path d="M340,360.11c-2.208,0-4,1.788-4,4c0,15.496-32.148,32.084-80,32.084s-80-16.588-80-32.084c0-2.212-1.792-4-4-4
			s-4,1.788-4,4c0,22.476,38.656,40.084,88,40.084s88-17.612,88-40.084C344,361.898,342.208,360.11,340,360.11z"/>
	</g>
</g>
<g>
	<g>
		<path d="M340,384.13c-2.208,0-4,1.788-4,4c0,15.496-32.148,32.088-80,32.088s-80-16.592-80-32.088c0-2.212-1.792-4-4-4
			s-4,1.788-4,4c0,22.48,38.656,40.088,88,40.088s88-17.612,88-40.088C344,385.918,342.208,384.13,340,384.13z"/>
	</g>
</g>
<g>
	<g>
		<path d="M508,288.038c-2.208,0-4,1.788-4,4c0,15.496-32.148,32.088-80,32.088s-80-16.592-80-32.088c0-2.212-1.792-4-4-4
			s-4,1.788-4,4c0,22.48,38.656,40.088,88,40.088s88-17.608,88-40.088C512,289.826,510.208,288.038,508,288.038z"/>
	</g>
</g>
<g>
	<g>
		<path d="M508,312.062c-2.208,0-4,1.788-4,4c0,15.496-32.148,32.084-80,32.084s-80-16.588-80-32.084c0-2.212-1.792-4-4-4
			s-4,1.788-4,4c0,22.476,38.656,40.084,88,40.084s88-17.608,88-40.084C512,313.85,510.208,312.062,508,312.062z"/>
	</g>
</g>
<g>
	<g>
		<path d="M508,336.086c-2.208,0-4,1.788-4,4c0,15.496-32.148,32.084-80,32.084s-80-16.588-80-32.084c0-2.212-1.792-4-4-4
			s-4,1.788-4,4c0,22.476,38.656,40.084,88,40.084s88-17.608,88-40.084C512,337.874,510.208,336.086,508,336.086z"/>
	</g>
</g>
<g>
	<g>
		<path d="M508,360.11c-2.208,0-4,1.788-4,4c0,15.496-32.148,32.084-80,32.084s-80-16.588-80-32.084c0-2.212-1.792-4-4-4
			s-4,1.788-4,4c0,22.476,38.656,40.084,88,40.084s88-17.612,88-40.084C512,361.898,510.208,360.11,508,360.11z"/>
	</g>
</g>
<g>
	<g>
		<path d="M508,384.13c-2.208,0-4,1.788-4,4c0,15.496-32.148,32.088-80,32.088s-80-16.592-80-32.088c0-2.212-1.792-4-4-4
			s-4,1.788-4,4c0,22.48,38.656,40.088,88,40.088s88-17.612,88-40.088C512,385.918,510.208,384.13,508,384.13z"/>
	</g>
</g>
<g>
	<g>
		<path d="M256,155.894c-49.344,0-88,17.608-88,40.088s38.656,40.088,88,40.088s88-17.608,88-40.088S305.344,155.894,256,155.894z
			 M256,228.066c-47.852,0-80-16.592-80-32.088c0-15.496,32.148-32.088,80-32.088s80,16.592,80,32.088
			C336,211.474,303.852,228.066,256,228.066z"/>
	</g>
</g>
<g>
	<g>
		<path d="M88,83.782c-49.344,0-88,17.608-88,40.092c0,22.476,38.656,40.084,88,40.084s88-17.608,88-40.084
			C176,101.39,137.344,83.782,88,83.782z M88,155.954c-47.852,0-80-16.588-80-32.084c0-15.5,32.148-32.092,80-32.092
			s80,16.596,80,32.092C168,139.366,135.852,155.954,88,155.954z"/>
	</g>
</g>
<g>
	<g>
		<path d="M424,227.93c-49.344,0-88,17.608-88,40.088c0,22.48,38.656,40.088,88,40.088s88-17.608,88-40.088
			C512,245.538,473.344,227.93,424,227.93z M424,300.102c-47.852,0-80-16.592-80-32.088c0-15.496,32.148-32.088,80-32.088
			s80,16.592,80,32.088C504,283.51,471.852,300.102,424,300.102z"/>
	</g>
</g>
<g>
</g>
<g>
</g>
<g>
</g>
<g>
</g>
<g>
</g>
<g>
</g>
<g>
</g>
<g>
</g>
<g>
</g>
<g>
</g>
<g>
</g>
<g>
</g>
<g>
</g>
<g>
</g>
<g>
</g>
</svg>
