<?xml version='1.0' encoding='iso-8859-1'?>
<!DOCTYPE svg PUBLIC '-//W3C//DTD SVG 1.1//EN' 'http://www.w3.org/Graphics/SVG/1.1/DTD/svg11.dtd'>
<svg version="1.1" xmlns="http://www.w3.org/2000/svg" viewBox="0 0 512 512" xmlns:xlink="http://www.w3.org/1999/xlink" enable-background="new 0 0 512 512">
  <path d="m448,192h-86.109l-91.578-183.156c-2.711-5.422-8.25-8.844-14.312-8.844h-64c-4.477,0-8.742,1.875-11.773,5.164-3.031,3.297-4.539,7.703-4.172,12.164l5.222,62.672h-37.277c-8.836,0-16,7.164-16,16s7.164,16 16,16h39.943l6.666,80h-90.179l-76.195-45.719c-5.742-3.445-13.023-2.938-18.242,1.234-5.227,4.195-7.289,11.195-5.172,17.547l30.312,90.938-30.312,90.937c-2.117,6.352-0.055,13.352 5.172,17.547 5.211,4.172 12.492,4.68 18.242,1.234l76.195-45.718h90.179l-6.666,80h-39.943c-8.836,0-16,7.164-16,16s7.164,16 16,16h37.277l-5.223,62.672c-0.367,4.461 1.141,8.867 4.172,12.164 3.031,3.289 7.297,5.164 11.773,5.164h64c6.063,0 11.602-3.422 14.312-8.844l91.579-183.156h86.109c35.289,0 64-28.711 64-64s-28.711-64-64-64zm0,96h-96c-6.063,0-11.602,3.422-14.312,8.844l-91.578,183.156h-36.719l14.555-174.672c0.367-4.461-1.141-8.867-4.172-12.164-3.031-3.289-7.297-5.164-11.773-5.164h-112c-2.898,0-5.742,0.789-8.234,2.281l-42.906,25.742 18.32-54.961c1.094-3.289 1.094-6.836 0-10.125l-18.32-54.961 42.906,25.742c2.492,1.492 5.336,2.281 8.234,2.281h112c4.477,0 8.742-1.875 11.773-5.164 3.031-3.297 4.539-7.703 4.172-12.164l-14.555-174.671h36.719l91.578,183.156c2.711,5.422 8.25,8.844 14.312,8.844h96c17.648,0 32,14.352 32,32 0,17.648-14.351,32-32,32z"/>
</svg>
