<?xml version="1.0" encoding="iso-8859-1"?>
<!-- Generator: Adobe Illustrator 16.0.0, SVG Export Plug-In . SVG Version: 6.00 Build 0)  -->
<!DOCTYPE svg PUBLIC "-//W3C//DTD SVG 1.1//EN" "http://www.w3.org/Graphics/SVG/1.1/DTD/svg11.dtd">
<svg version="1.1" id="Capa_1" xmlns="http://www.w3.org/2000/svg" xmlns:xlink="http://www.w3.org/1999/xlink" x="0px" y="0px"
	 width="519.579px" height="519.579px" viewBox="0 0 519.579 519.579" style="enable-background:new 0 0 519.579 519.579;"
	 xml:space="preserve">
<g>
	<g>
		<path d="M371.053,0H95.893C81.989,0,70.676,11.322,70.676,25.216V130.48c0,3.94,3.223,7.172,7.172,7.172c0,0,0.412,0,0.928,0
			c0.507,0,0.928,0.488,0.928,1.09c0,0.602-0.411,1.09-0.928,1.09h-0.928c-3.949,0-7.172,3.232-7.172,7.172v28.573
			c0,3.959,3.223,7.172,7.172,7.172c0,0,0.412,0,0.928,0c0.507,0,0.928,4.284,0.928,9.562v29.701c0,5.278-0.411,9.562-0.928,9.562
			h-0.928c-3.949,0-7.172,3.213-7.172,7.172v255.615c0,13.895,11.312,25.217,25.216,25.217h327.793
			c13.904,0,25.217-11.322,25.217-25.217V190.609c0-3.939-3.223-7.172-7.172-7.172c0,0-1.426,0-3.186,0s-3.184-3.519-3.184-7.86
			s1.424-7.86,3.184-7.86h3.186c3.949,0,7.172-3.232,7.172-7.172V80.851c0-11.733-6.312-27.569-14.363-36.079l-27.828-29.415
			C398.555,6.742,382.893,0,371.053,0z M431.374,153.373h-3.184c-3.949,0-7.172,3.213-7.172,7.172v30.064
			c0,3.959,3.223,7.172,7.172,7.172c0,0,1.424,0,3.184,0s3.186,4.284,3.186,9.562v287.009c0,5.996-4.877,10.873-10.873,10.873
			H95.893c-5.996,0-10.873-4.877-10.873-10.873v-238.88c0-5.279,0.412-9.562,0.928-9.562h0.928c3.949,0,7.172-3.232,7.172-7.172
			v-63.17c0-3.94-3.223-7.172-7.172-7.172c0,0-0.411,0-0.928,0c-0.507,0-0.928-3.185-0.928-7.115s0.412-7.114,0.928-7.114h0.928
			c3.949,0,7.172-3.213,7.172-7.172v-16.534c0-3.959-3.223-7.172-7.172-7.172c0,0-0.411,0-0.928,0c-0.507,0-0.928-4.284-0.928-9.562
			v-88.52c0-5.996,4.877-10.873,10.873-10.873h275.161c7.967,0,19.756,5.078,25.236,10.873l27.826,29.414
			c5.566,5.881,10.443,18.131,10.443,26.221v62.959C434.559,149.089,433.133,153.373,431.374,153.373z"/>
		<path d="M371.188,86.56H141.257c-16.008,0-29.032,13.015-29.032,29.022v285.011c0,16.007,13.024,29.021,29.032,29.021h229.931
			c15.998,0,29.012-13.015,29.012-29.021V115.592C400.2,99.584,387.186,86.56,371.188,86.56z M393.028,400.593
			c0,12.049-9.791,21.85-21.84,21.85H141.257c-12.058,0-21.86-9.801-21.86-21.85V115.592c0-12.049,9.802-21.851,21.86-21.851
			h229.931c12.049,0,21.84,9.802,21.84,21.851V400.593z"/>
		<path d="M252.029,318.384c-5.394,0-9.954,1.864-13.675,5.584c-3.729,3.739-5.584,8.253-5.584,13.56
			c0,6.072,1.951,10.815,5.843,14.191c3.892,3.385,8.453,5.059,13.674,5.059c5.136,0,9.629-1.702,13.483-5.136
			c3.854-3.413,5.785-8.128,5.785-14.123c0-5.308-1.902-9.821-5.717-13.56C262.032,320.248,257.423,318.384,252.029,318.384z"/>
		<path d="M253.062,162.333c-6.082,0-10.979,1.999-14.708,5.977c-3.729,3.978-5.584,9.524-5.584,16.639
			c0,5.212,0.392,13.818,1.157,25.81l4.111,61.525c0.775,7.956,2.057,13.894,3.854,17.776c1.798,3.901,5.012,5.843,9.63,5.843
			c4.542,0,7.784-2.018,9.763-6.034c1.971-4.035,3.252-9.802,3.854-17.347l5.518-63.313c0.594-5.804,0.898-11.561,0.898-17.203
			c0-9.582-1.242-16.945-3.729-22.022C265.35,164.896,260.425,162.333,253.062,162.333z"/>
	</g>
</g>
<g>
</g>
<g>
</g>
<g>
</g>
<g>
</g>
<g>
</g>
<g>
</g>
<g>
</g>
<g>
</g>
<g>
</g>
<g>
</g>
<g>
</g>
<g>
</g>
<g>
</g>
<g>
</g>
<g>
</g>
</svg>
