<?xml version="1.0" encoding="iso-8859-1"?>
<!-- Generator: Adobe Illustrator 19.0.0, SVG Export Plug-In . SVG Version: 6.00 Build 0)  -->
<svg version="1.1" id="Layer_1" xmlns="http://www.w3.org/2000/svg" xmlns:xlink="http://www.w3.org/1999/xlink" x="0px" y="0px"
	 viewBox="0 0 512.002 512.002" style="enable-background:new 0 0 512.002 512.002;" xml:space="preserve">
<g>
	<g>
		<path d="M428.564,128.61l-19.193-28.64l12.712-32.048c2.219-5.594,1.09-11.843-2.944-16.31
			c-4.034-4.465-10.137-6.216-15.926-4.577l-33.168,9.405l-26.552-21.992c-4.635-3.839-10.93-4.696-16.42-2.24
			c-5.493,2.458-9.048,7.72-9.275,13.732l-1.306,34.452l-29.12,18.455c-5.083,3.222-7.844,8.94-7.205,14.925
			c0.639,5.983,4.545,10.99,10.195,13.065l32.361,11.888l8.553,33.398c1.493,5.83,6.079,10.222,11.967,11.463
			c1.097,0.231,2.197,0.345,3.286,0.345c4.75,0,9.265-2.153,12.291-6.002l21.305-27.104l34.408,2.185
			c6.001,0.383,11.601-2.622,14.601-7.84C432.133,139.954,431.915,133.608,428.564,128.61z M376.808,133.908
			c-2.732-0.173-5.387,1.01-7.083,3.168l-22.79,28.992l-9.149-35.725c-0.68-2.658-2.625-4.811-5.202-5.757l-34.616-12.715
			l31.149-19.742c2.318-1.468,3.764-3.984,3.868-6.726l1.397-36.851l28.4,23.523c2.113,1.75,4.951,2.349,7.592,1.601l35.478-10.059
			l-13.596,34.28c-1.011,2.55-0.704,5.435,0.825,7.714l20.53,30.634L376.808,133.908z"/>
	</g>
</g>
<g>
	<g>
		<path d="M450.92,210.76c-2.492-4.128-7.032-6.437-11.83-6.03l-17.94,1.524l-11.427-13.916c-3.06-3.726-7.879-5.36-12.575-4.266
			c-4.696,1.095-8.294,4.692-9.391,9.388l-4.095,17.532l-16.765,6.567c-4.49,1.76-7.533,5.836-7.943,10.641
			c-0.41,4.805,1.899,9.338,6.026,11.832l15.409,9.313l1.065,17.974c0.285,4.814,3.222,8.968,7.665,10.843
			c1.593,0.672,3.261,1.002,4.913,1.002c2.956,0,5.862-1.053,8.202-3.076l13.619-11.778l17.422,4.542
			c4.667,1.216,9.526-0.293,12.682-3.939c3.156-3.646,3.953-8.671,2.08-13.114l-6.993-16.592l9.704-15.167
			C453.347,219.976,453.412,214.889,450.92,210.76z M423.979,241.641l5.47,12.981l-13.63-3.552
			c-2.657-0.694-5.481-0.033-7.556,1.761l-10.654,9.215l-0.834-14.061c-0.162-2.739-1.662-5.223-4.009-6.643l-12.056-7.286
			l13.116-5.138c2.554-1,4.454-3.195,5.078-5.867l3.203-13.717l8.939,10.886c1.741,2.121,4.413,3.251,7.148,3.017l14.035-1.192
			l-7.592,11.866C423.159,236.223,422.913,239.114,423.979,241.641z"/>
	</g>
</g>
<g>
	<g>
		<path d="M286.847,55.015L276.101,40.57l5.807-17.043c1.555-4.564,0.407-9.521-2.999-12.936c-3.405-3.416-8.355-4.577-12.926-3.037
			l-17.06,5.758l-14.413-10.79c-3.862-2.891-8.93-3.328-13.23-1.146c-4.299,2.183-6.937,6.535-6.882,11.357l0.203,18.004
			L199.886,41.11c-3.942,2.779-5.926,7.464-5.178,12.228c0.747,4.765,4.07,8.618,8.673,10.055l17.185,5.37l5.32,17.202
			c1.425,4.607,5.268,7.942,10.029,8.702c0.677,0.109,1.352,0.161,2.021,0.161c4.035,0,7.827-1.93,10.221-5.303l10.417-14.685
			l18.004,0.256c4.813,0.081,9.18-2.555,11.375-6.849C290.149,63.953,289.725,58.883,286.847,55.015z M254.431,58.108
			c-2.715-0.032-5.33,1.274-6.918,3.513l-8.15,11.489l-4.162-13.457c-0.81-2.621-2.859-4.676-5.478-5.494l-13.445-4.201
			l11.511-8.119c2.243-1.581,3.564-4.164,3.532-6.908l-0.159-14.084l11.277,8.441c2.198,1.645,5.061,2.102,7.662,1.226l13.346-4.504
			l-4.543,13.333c-0.885,2.597-0.436,5.463,1.203,7.665l8.408,11.302L254.431,58.108z"/>
	</g>
</g>
<g>
	<g>
		<path d="M307.326,195.038c-2.76-3.686-7.985-4.436-11.67-1.676c-50.137,37.543-93.604,82.695-129.195,134.202
			c-26.995,39.066-48.901,81.001-65.403,125.133c22.161-113.261,79.326-217.689,163.885-297.938c3.34-3.17,3.478-8.447,0.308-11.786
			c-3.169-3.34-8.444-3.478-11.786-0.308c-99.001,93.954-161.541,220.109-176.1,355.224c-0.716,6.639,3.681,12.6,10.227,13.865
			c0.865,0.167,1.721,0.248,2.561,0.248c5.614,0,10.483-3.619,12.08-9.298c16.645-59.166,42.87-114.904,77.943-165.662
			c34.564-50.021,76.779-93.872,125.473-130.333C309.335,203.948,310.086,198.724,307.326,195.038z"/>
	</g>
</g>
<g>
	<g>
		<path d="M217.567,110.16c-2.956-3.531-8.213-3.997-11.743-1.042c-36.771,30.781-66.466,70.35-90.784,120.97
			c-12.772,26.585-23.923,56.057-33.697,89.155c4.926-37.088,12.578-71.524,22.881-102.867
			c17.83-54.243,43.786-99.639,77.144-134.926c3.162-3.346,3.014-8.622-0.331-11.786c-3.347-3.165-8.623-3.014-11.786,0.331
			c-35.058,37.083-62.265,84.581-80.868,141.173c-16.045,48.811-25.838,104.75-29.108,166.265
			c-0.331,6.236,4.076,11.578,10.254,12.427c0.56,0.077,1.115,0.114,1.664,0.114c5.505,0.001,10.316-3.768,11.554-9.306
			C110.3,257.465,152.81,175.241,216.526,121.903C220.056,118.947,220.523,113.69,217.567,110.16z"/>
	</g>
</g>
<g>
	<g>
		<path d="M360.219,292.011c-1.925-4.179-6.872-6.011-11.059-4.089c-78.57,36.126-122.535,68.915-175.771,134.62
			c15.729-33.168,32.805-59.635,53.416-83.174c25.885-29.562,58.588-55.645,106.035-84.569c3.932-2.396,5.175-7.526,2.779-11.458
			c-2.396-3.932-7.526-5.176-11.458-2.779c-96.364,58.745-142.135,111.927-181.39,210.763c-2.222,5.594-0.182,11.513,4.962,14.396
			c1.845,1.034,3.869,1.528,5.887,1.528c3.825,0,7.617-1.784,10.077-5.065c32.778-43.73,58.424-72.111,85.749-94.896
			c28.422-23.7,60.326-42.905,106.681-64.218C360.31,301.145,362.142,296.194,360.219,292.011z"/>
	</g>
</g>
<g>
</g>
<g>
</g>
<g>
</g>
<g>
</g>
<g>
</g>
<g>
</g>
<g>
</g>
<g>
</g>
<g>
</g>
<g>
</g>
<g>
</g>
<g>
</g>
<g>
</g>
<g>
</g>
<g>
</g>
</svg>
