<?xml version="1.0" encoding="iso-8859-1"?>
<!-- Generator: Adobe Illustrator 19.0.0, SVG Export Plug-In . SVG Version: 6.00 Build 0)  -->
<svg version="1.1" id="Capa_1" xmlns="http://www.w3.org/2000/svg" xmlns:xlink="http://www.w3.org/1999/xlink" x="0px" y="0px"
	 viewBox="0 0 46.999 46.999" style="enable-background:new 0 0 46.999 46.999;" xml:space="preserve">
<g>
	<g>
		<path d="M39,14.999c0-0.329-0.161-0.637-0.433-0.823l-14.5-10c-0.342-0.236-0.793-0.236-1.135,0l-14.5,10
			C8.161,14.363,8,14.67,8,14.999v30H6v2h3h6h6h17h3v-2h-2V14.999z M16,44.999v-9h4v9H16z M22,44.999v-10c0-0.553-0.447-1-1-1h-6
			c-0.553,0-1,0.447-1,1v10h-4V15.525l13.5-9.311L37,15.525v29.475H22z"/>
		<path d="M41.06,11.671l-17-11.5c-0.34-0.228-0.781-0.228-1.121,0l-17,11.5c-0.457,0.31-0.577,0.931-0.268,1.389
			c0.309,0.456,0.93,0.578,1.389,0.268L23.5,2.206l16.439,11.121c0.172,0.116,0.367,0.172,0.56,0.172
			c0.321,0,0.636-0.154,0.829-0.439C41.637,12.602,41.517,11.981,41.06,11.671z"/>
		<path d="M33,33.999h-7c-0.553,0-1,0.447-1,1v5c0,0.553,0.447,1,1,1h7c0.553,0,1-0.447,1-1v-5C34,34.447,33.552,33.999,33,33.999z
			 M32,38.999h-5v-3h5V38.999z"/>
		<path d="M33,21.999h-7c-0.553,0-1,0.447-1,1v5c0,0.553,0.447,1,1,1h7c0.553,0,1-0.447,1-1v-5C34,22.447,33.552,21.999,33,21.999z
			 M32,26.999h-5v-3h5V26.999z"/>
		<path d="M21,21.999h-7c-0.553,0-1,0.447-1,1v5c0,0.553,0.447,1,1,1h7c0.553,0,1-0.447,1-1v-5C22,22.447,21.552,21.999,21,21.999z
			 M20,26.999h-5v-3h5V26.999z"/>
	</g>
</g>
<g>
</g>
<g>
</g>
<g>
</g>
<g>
</g>
<g>
</g>
<g>
</g>
<g>
</g>
<g>
</g>
<g>
</g>
<g>
</g>
<g>
</g>
<g>
</g>
<g>
</g>
<g>
</g>
<g>
</g>
</svg>
