<?xml version="1.0" standalone="no"?>
<!DOCTYPE svg PUBLIC "-//W3C//DTD SVG 20010904//EN"
 "http://www.w3.org/TR/2001/REC-SVG-20010904/DTD/svg10.dtd">
<svg version="1.0" xmlns="http://www.w3.org/2000/svg"
 width="317.000000pt" height="319.000000pt" viewBox="0 0 317.000000 319.000000"
 preserveAspectRatio="xMidYMid meet">

<g transform="translate(0.000000,319.000000) scale(0.100000,-0.100000)"
fill="#000000" stroke="none">
<path d="M1420 3164 c-98 -12 -262 -48 -343 -76 -387 -129 -712 -415 -892
-783 -114 -236 -151 -398 -167 -735 -10 -212 -9 -243 6 -315 10 -44 22 -105
27 -135 21 -119 94 -222 190 -268 48 -23 155 -50 164 -41 2 3 -7 50 -20 104
-34 131 -47 297 -43 535 3 180 5 199 27 243 26 54 78 95 133 104 29 4 47 -2
104 -36 232 -140 614 -211 1069 -198 278 8 468 38 670 104 82 27 200 81 247
114 65 47 161 8 211 -86 21 -38 22 -52 22 -330 0 -298 -9 -388 -52 -509 -7
-22 -11 -41 -9 -43 8 -9 121 19 161 40 101 51 136 95 199 254 l44 111 -8 213
c-13 313 -18 371 -41 482 -66 320 -220 601 -450 823 -128 122 -225 191 -375
267 -213 107 -419 156 -674 162 -91 2 -181 1 -200 -1z m250 -174 c145 -23 284
-94 377 -191 202 -213 235 -531 82 -785 -47 -77 -160 -181 -244 -226 -110 -57
-173 -72 -305 -72 -99 0 -126 4 -195 28 -228 79 -379 247 -430 480 -32 143 -5
314 71 451 15 28 64 87 108 131 65 65 98 89 166 122 131 62 246 81 370 62z"/>
<path d="M1680 2914 c-107 -28 -219 -92 -296 -168 -79 -79 -117 -149 -140
-254 -25 -122 -14 -216 39 -316 105 -198 396 -232 553 -64 67 71 88 126 88
223 0 87 -18 143 -69 209 -32 42 -105 90 -164 107 l-43 13 5 49 c10 83 74 169
152 203 30 13 30 13 -20 13 -27 0 -75 -7 -105 -15z"/>
<path d="M1025 1425 c-71 -25 -125 -106 -125 -185 1 -38 34 -103 68 -132 65
-54 161 -62 226 -18 124 86 108 269 -29 331 -48 22 -86 23 -140 4z"/>
<path d="M2005 1421 c-65 -29 -115 -104 -115 -171 0 -34 22 -91 47 -121 54
-64 143 -85 218 -50 129 60 156 213 54 307 -60 55 -133 68 -204 35z"/>
<path d="M920 743 c-53 -21 -88 -91 -70 -139 22 -58 137 -157 262 -223 367
-198 810 -148 1136 128 67 56 86 91 79 145 -4 29 -15 49 -38 70 -28 25 -38 28
-80 24 -40 -4 -56 -13 -106 -57 -291 -261 -719 -265 -1022 -10 -72 61 -120 79
-161 62z"/>
</g>
</svg>
